<?xml version="1.0" encoding="UTF-8"?>
<svg width="600" height="400" viewBox="0 0 600 400" xmlns="http://www.w3.org/2000/svg">
  <!-- Fractal Network Visualization -->
  <!-- Background -->
  <rect width="600" height="400" fill="#2d3748" opacity="0.8"/>
  
  <!-- Main Nodes and Connections -->
  <g stroke="#6366f1" fill="#6366f1" stroke-width="2" opacity="0.8">
    <!-- Central Node -->
    <circle cx="300" cy="200" r="20" fill="#6366f1" opacity="0.9"/>
    
    <!-- First Level Nodes -->
    <circle cx="150" cy="150" r="15" fill="#6366f1" opacity="0.8"/>
    <circle cx="450" cy="150" r="15" fill="#6366f1" opacity="0.8"/>
    <circle cx="150" cy="250" r="15" fill="#6366f1" opacity="0.8"/>
    <circle cx="450" cy="250" r="15" fill="#6366f1" opacity="0.8"/>
    
    <!-- Central Connections -->
    <line x1="300" y1="200" x2="150" y2="150" stroke="#6366f1" opacity="0.6"/>
    <line x1="300" y1="200" x2="450" y2="150" stroke="#6366f1" opacity="0.6"/>
    <line x1="300" y1="200" x2="150" y2="250" stroke="#6366f1" opacity="0.6"/>
    <line x1="300" y1="200" x2="450" y2="250" stroke="#6366f1" opacity="0.6"/>
    
    <!-- Secondary Nodes -->
    <circle cx="100" cy="100" r="10" fill="#8b5cf6" opacity="0.7"/>
    <circle cx="200" cy="100" r="10" fill="#8b5cf6" opacity="0.7"/>
    <circle cx="400" cy="100" r="10" fill="#8b5cf6" opacity="0.7"/>
    <circle cx="500" cy="100" r="10" fill="#8b5cf6" opacity="0.7"/>
    <circle cx="100" cy="300" r="10" fill="#8b5cf6" opacity="0.7"/>
    <circle cx="200" cy="300" r="10" fill="#8b5cf6" opacity="0.7"/>
    <circle cx="400" cy="300" r="10" fill="#8b5cf6" opacity="0.7"/>
    <circle cx="500" cy="300" r="10" fill="#8b5cf6" opacity="0.7"/>
    
    <!-- Secondary Connections -->
    <line x1="150" y1="150" x2="100" y2="100" stroke="#8b5cf6" opacity="0.4"/>
    <line x1="150" y1="150" x2="200" y2="100" stroke="#8b5cf6" opacity="0.4"/>
    <line x1="450" y1="150" x2="400" y2="100" stroke="#8b5cf6" opacity="0.4"/>
    <line x1="450" y1="150" x2="500" y2="100" stroke="#8b5cf6" opacity="0.4"/>
    <line x1="150" y1="250" x2="100" y2="300" stroke="#8b5cf6" opacity="0.4"/>
    <line x1="150" y1="250" x2="200" y2="300" stroke="#8b5cf6" opacity="0.4"/>
    <line x1="450" y1="250" x2="400" y2="300" stroke="#8b5cf6" opacity="0.4"/>
    <line x1="450" y1="250" x2="500" y2="300" stroke="#8b5cf6" opacity="0.4"/>
    
    <!-- Tertiary Nodes -->
    <circle cx="50" cy="50" r="5" fill="#a78bfa" opacity="0.6"/>
    <circle cx="150" cy="50" r="5" fill="#a78bfa" opacity="0.6"/>
    <circle cx="250" cy="50" r="5" fill="#a78bfa" opacity="0.6"/>
    <circle cx="350" cy="50" r="5" fill="#a78bfa" opacity="0.6"/>
    <circle cx="450" cy="50" r="5" fill="#a78bfa" opacity="0.6"/>
    <circle cx="550" cy="50" r="5" fill="#a78bfa" opacity="0.6"/>
    <circle cx="50" cy="350" r="5" fill="#a78bfa" opacity="0.6"/>
    <circle cx="150" cy="350" r="5" fill="#a78bfa" opacity="0.6"/>
    <circle cx="250" cy="350" r="5" fill="#a78bfa" opacity="0.6"/>
    <circle cx="350" cy="350" r="5" fill="#a78bfa" opacity="0.6"/>
    <circle cx="450" cy="350" r="5" fill="#a78bfa" opacity="0.6"/>
    <circle cx="550" cy="350" r="5" fill="#a78bfa" opacity="0.6"/>
    
    <!-- Tertiary Connections (just a few for visual appeal) -->
    <line x1="100" y1="100" x2="50" y2="50" stroke="#a78bfa" opacity="0.2"/>
    <line x1="100" y1="100" x2="150" y2="50" stroke="#a78bfa" opacity="0.2"/>
    <line x1="200" y1="100" x2="250" y2="50" stroke="#a78bfa" opacity="0.2"/>
    <line x1="400" y1="100" x2="350" y2="50" stroke="#a78bfa" opacity="0.2"/>
    <line x1="400" y1="100" x2="450" y2="50" stroke="#a78bfa" opacity="0.2"/>
    <line x1="500" y1="100" x2="550" y2="50" stroke="#a78bfa" opacity="0.2"/>
    <line x1="100" y1="300" x2="50" y2="350" stroke="#a78bfa" opacity="0.2"/>
    <line x1="100" y1="300" x2="150" y2="350" stroke="#a78bfa" opacity="0.2"/>
    <line x1="200" y1="300" x2="250" y2="350" stroke="#a78bfa" opacity="0.2"/>
    <line x1="400" y1="300" x2="350" y2="350" stroke="#a78bfa" opacity="0.2"/>
    <line x1="400" y1="300" x2="450" y2="350" stroke="#a78bfa" opacity="0.2"/>
    <line x1="500" y1="300" x2="550" y2="350" stroke="#a78bfa" opacity="0.2"/>
  </g>
  
  <!-- Glow effects -->
  <circle cx="300" cy="200" r="25" fill="#6366f1" opacity="0.3">
    <animate attributeName="r" values="25;35;25" dur="4s" repeatCount="indefinite" />
  </circle>
  
  <!-- Pulsing effect -->
  <circle cx="300" cy="200" r="5" fill="white" opacity="0.8">
    <animate attributeName="opacity" values="0.8;0.2;0.8" dur="2s" repeatCount="indefinite" />
  </circle>
</svg>